ffmpeg started on 2025-05-24 at 15:26:00
Report written to "D:\Convert\FFMetrics\reports\ssim_report-6.txt"
Log level: 32
Command line:
ffmpeg -hide_banner -nostdin -i "G:\\\xc0\xed\xe8\xec\xe5\\\xce\xed\xe3\xee\xe8\xed\xe3\xe8\\!_33_\xc7\xe8\xec\xe0_2024\\DreamCast\\\xd1\xf2\xe0\xed\xee\xe2\xff\xf1\xfc \xe2\xee\xeb\xf8\xe5\xe1\xed\xe8\xf6\xe5\xe9\\[DC] Mahou Shoujo ni Akogarete - 01_Telegram_HEVC.mkv" -i "G:\\\xc0\xed\xe8\xec\xe5\\\xce\xed\xe3\xee\xe8\xed\xe3\xe8\\!_33_\xc7\xe8\xec\xe0_2024\\DreamCast\\\xd1\xf2\xe0\xed\xee\xe2\xff\xf1\xfc \xe2\xee\xeb\xf8\xe5\xe1\xed\xe8\xf6\xe5\xe9\\[DC] Mahou Shoujo ni Akogarete - 01_Telegram.mp4" -lavfi "[0:v]settb=AVTB,setpts=PTS-STARTPTS,format=pix_fmts=yuv420p10,fps=24000/1001,scale=1920:1080:flags=bicubic[main];[1:v]settb=AVTB,setpts=PTS-STARTPTS,format=pix_fmts=yuv420p,fps=24000/1001,scale=1920:1080:flags=bicubic[ref];[main][ref]ssim=eof_action=endall:stats_file='D\\:/Convert/FFMetrics/logs/ssim_logfile-6.txt'" -f null -
Input #0, matroska,webm, from 'G:\Аниме\Онгоинги\!_33_Зима_2024\DreamCast\Становясь волшебницей\[DC] Mahou Shoujo ni Akogarete - 01_Telegram_HEVC.mkv':
  Metadata:
    COMPATIBLE_BRANDS: isomiso2avc1mp41
    MAJOR_BRAND     : isom
    MINOR_VERSION   : 512
    ENCODER         : Lavf61.7.100
  Duration: 00:23:49.16, start: -0.021000, bitrate: 1652 kb/s
  Stream #0:0: Video: hevc (Main 10), yuv420p10le(tv, bt709, progressive), 1920x1080 [SAR 1:1 DAR 16:9], 23.98 fps, 23.98 tbr, 1k tbn (default)
      Metadata:
        HANDLER_NAME    : VideoHandler
        VENDOR_ID       : [0][0][0][0]
        ENCODER         : Lavc61.19.100 libx265
        BPS             : 1454667
        DURATION        : 00:23:49.010708333
        NUMBER_OF_FRAMES: 34262
        NUMBER_OF_BYTES : 259841815
        _STATISTICS_WRITING_APP: mkvpropedit v66.0.0 ('Josie') 64-bit
        _STATISTICS_WRITING_DATE_UTC: 2025-05-24 08:57:28
        _STATISTICS_TAGS: BPS DURATION NUMBER_OF_FRAMES NUMBER_OF_BYTES
  Stream #0:1: Audio: aac (LC), 48000 Hz, stereo, fltp (default)
      Metadata:
        HANDLER_NAME    : SoundHandler
        VENDOR_ID       : [0][0][0][0]
        ENCODER         : Lavc61.19.100 aac
        BPS             : 193475
        DURATION        : 00:23:49.162000000
        NUMBER_OF_FRAMES: 66993
        NUMBER_OF_BYTES : 34563428
        _STATISTICS_WRITING_APP: mkvpropedit v66.0.0 ('Josie') 64-bit
        _STATISTICS_WRITING_DATE_UTC: 2025-05-24 08:57:28
        _STATISTICS_TAGS: BPS DURATION NUMBER_OF_FRAMES NUMBER_OF_BYTES
Input #1, mov,mp4,m4a,3gp,3g2,mj2, from 'G:\Аниме\Онгоинги\!_33_Зима_2024\DreamCast\Становясь волшебницей\[DC] Mahou Shoujo ni Akogarete - 01_Telegram.mp4':
  Metadata:
    major_brand     : isom
    minor_version   : 512
    compatible_brands: isomiso2avc1mp41
    encoder         : Lavf60.16.100
  Duration: 00:23:49.12, start: 0.000000, bitrate: 3690 kb/s
  Stream #1:0[0x1](und): Video: h264 (High) (avc1 / 0x31637661), yuv420p(tv, bt709, progressive), 1920x1080 [SAR 1:1 DAR 16:9], 3543 kb/s, 23.98 fps, 23.98 tbr, 24k tbn (default)
      Metadata:
        handler_name    : VideoHandler
        vendor_id       : [0][0][0][0]
        encoder         : Lavc60.31.102 h264_qsv
  Stream #1:1[0x2](und): Audio: aac (HE-AACv2) (mp4a / 0x6134706D), 48000 Hz, stereo, fltp, 144 kb/s (default)
      Metadata:
        handler_name    : SoundHandler
        vendor_id       : [0][0][0][0]
Stream mapping:
  Stream #0:0 (hevc) -> settb:default
  Stream #1:0 (h264) -> settb:default
  ssim:default -> Stream #0:0 (wrapped_avframe)
  Stream #0:1 -> #0:1 (aac (native) -> pcm_s16le (native))
Output #0, null, to 'pipe:':
  Metadata:
    COMPATIBLE_BRANDS: isomiso2avc1mp41
    MAJOR_BRAND     : isom
    MINOR_VERSION   : 512
    encoder         : Lavf61.7.100
  Stream #0:0: Video: wrapped_avframe, yuv420p10le(tv, bt709, progressive), 1920x1080 [SAR 1:1 DAR 16:9], q=2-31, 200 kb/s, 23.98 fps, 23.98 tbn
      Metadata:
        encoder         : Lavc61.19.100 wrapped_avframe
  Stream #0:1: Audio: pcm_s16le, 48000 Hz, stereo, s16, 1536 kb/s (default)
      Metadata:
        HANDLER_NAME    : SoundHandler
        VENDOR_ID       : [0][0][0][0]
        _STATISTICS_TAGS: BPS DURATION NUMBER_OF_FRAMES NUMBER_OF_BYTES
        BPS             : 193475
        DURATION        : 00:23:49.162000000
        NUMBER_OF_FRAMES: 66993
        NUMBER_OF_BYTES : 34563428
        _STATISTICS_WRITING_APP: mkvpropedit v66.0.0 ('Josie') 64-bit
        _STATISTICS_WRITING_DATE_UTC: 2025-05-24 08:57:28
        encoder         : Lavc61.19.100 pcm_s16le
frame=  204 fps=0.0 q=-0.0 size=N/A time=00:00:08.50 bitrate=N/A speed=16.2x    frame=  438 fps=422 q=-0.0 size=N/A time=00:00:18.26 bitrate=N/A speed=17.6x    frame=  654 fps=423 q=-0.0 size=N/A time=00:00:27.27 bitrate=N/A speed=17.6x    frame=  846 fps=409 q=-0.0 size=N/A time=00:00:35.28 bitrate=N/A speed=  17x    frame= 1044 fps=405 q=-0.0 size=N/A time=00:00:43.54 bitrate=N/A speed=16.9x    frame= 1235 fps=399 q=-0.0 size=N/A time=00:00:51.50 bitrate=N/A speed=16.7x    frame= 1397 fps=386 q=-0.0 size=N/A time=00:00:58.26 bitrate=N/A speed=16.1x    frame= 1558 fps=377 q=-0.0 size=N/A time=00:01:04.98 bitrate=N/A speed=15.7x    frame= 1749 fps=377 q=-0.0 size=N/A time=00:01:12.94 bitrate=N/A speed=15.7x    frame= 1899 fps=368 q=-0.0 size=N/A time=00:01:19.20 bitrate=N/A speed=15.3x    frame= 2072 fps=364 q=-0.0 size=N/A time=00:01:26.41 bitrate=N/A speed=15.2x    frame= 2276 fps=367 q=-0.0 size=N/A time=00:01:34.92 bitrate=N/A speed=15.3x    frame= 2486 fps=370 q=-0.0 size=N/A time=00:01:43.68 bitrate=N/A speed=15.4x    frame= 2637 fps=364 q=-0.0 size=N/A time=00:01:49.98 bitrate=N/A speed=15.2x    frame= 2764 fps=357 q=-0.0 size=N/A time=00:01:55.28 bitrate=N/A speed=14.9x    frame= 2988 fps=362 q=-0.0 size=N/A time=00:02:04.62 bitrate=N/A speed=15.1x    frame= 3225 fps=367 q=-0.0 size=N/A time=00:02:14.50 bitrate=N/A speed=15.3x    frame= 3424 fps=368 q=-0.0 size=N/A time=00:02:22.80 bitrate=N/A speed=15.4x    frame= 3566 fps=364 q=-0.0 size=N/A time=00:02:28.73 bitrate=N/A speed=15.2x    frame= 3852 fps=373 q=-0.0 size=N/A time=00:02:40.66 bitrate=N/A speed=15.5x    frame= 4081 fps=376 q=-0.0 size=N/A time=00:02:50.21 bitrate=N/A speed=15.7x    frame= 4240 fps=373 q=-0.0 size=N/A time=00:02:56.84 bitrate=N/A speed=15.6x    frame= 4418 fps=372 q=-0.0 size=N/A time=00:03:04.26 bitrate=N/A speed=15.5x    frame= 4598 fps=371 q=-0.0 size=N/A time=00:03:11.77 bitrate=N/A speed=15.5x    frame= 4840 fps=375 q=-0.0 size=N/A time=00:03:21.86 bitrate=N/A speed=15.6x    frame= 5105 fps=380 q=-0.0 size=N/A time=00:03:32.92 bitrate=N/A speed=15.9x    frame= 5379 fps=386 q=-0.0 size=N/A time=00:03:44.34 bitrate=N/A speed=16.1x    frame= 5665 fps=392 q=-0.0 size=N/A time=00:03:56.27 bitrate=N/A speed=16.3x    frame= 5900 fps=394 q=-0.0 size=N/A time=00:04:06.07 bitrate=N/A speed=16.4x    frame= 6097 fps=394 q=-0.0 size=N/A time=00:04:14.29 bitrate=N/A speed=16.4x    frame= 6307 fps=394 q=-0.0 size=N/A time=00:04:23.05 bitrate=N/A speed=16.4x    frame= 6546 fps=396 q=-0.0 size=N/A time=00:04:33.02 bitrate=N/A speed=16.5x    frame= 6750 fps=396 q=-0.0 size=N/A time=00:04:41.53 bitrate=N/A speed=16.5x    frame= 6974 fps=397 q=-0.0 size=N/A time=00:04:50.87 bitrate=N/A speed=16.6x    frame= 7163 fps=397 q=-0.0 size=N/A time=00:04:58.75 bitrate=N/A speed=16.5x    frame= 7326 fps=394 q=-0.0 size=N/A time=00:05:05.55 bitrate=N/A speed=16.4x    frame= 7534 fps=395 q=-0.0 size=N/A time=00:05:14.23 bitrate=N/A speed=16.5x    frame= 7698 fps=392 q=-0.0 size=N/A time=00:05:21.07 bitrate=N/A speed=16.4x    frame= 7857 fps=390 q=-0.0 size=N/A time=00:05:27.70 bitrate=N/A speed=16.3x    frame= 8078 fps=391 q=-0.0 size=N/A time=00:05:36.91 bitrate=N/A speed=16.3x    frame= 8333 fps=394 q=-0.0 size=N/A time=00:05:47.55 bitrate=N/A speed=16.4x    frame= 8562 fps=395 q=-0.0 size=N/A time=00:05:57.10 bitrate=N/A speed=16.5x    frame= 8835 fps=398 q=-0.0 size=N/A time=00:06:08.49 bitrate=N/A speed=16.6x    frame= 9119 fps=401 q=-0.0 size=N/A time=00:06:20.33 bitrate=N/A speed=16.7x    frame= 9400 fps=405 q=-0.0 size=N/A time=00:06:32.05 bitrate=N/A speed=16.9x    frame= 9635 fps=406 q=-0.0 size=N/A time=00:06:41.85 bitrate=N/A speed=16.9x    frame= 9880 fps=407 q=-0.0 size=N/A time=00:06:52.07 bitrate=N/A speed=  17x    frame=10135 fps=409 q=-0.0 size=N/A time=00:07:02.71 bitrate=N/A speed=17.1x    frame=10360 fps=410 q=-0.0 size=N/A time=00:07:12.09 bitrate=N/A speed=17.1x    frame=10589 fps=410 q=-0.0 size=N/A time=00:07:21.64 bitrate=N/A speed=17.1x    frame=10775 fps=409 q=-0.0 size=N/A time=00:07:29.40 bitrate=N/A speed=17.1x    frame=11028 fps=411 q=-0.0 size=N/A time=00:07:39.95 bitrate=N/A speed=17.1x    frame=11301 fps=413 q=-0.0 size=N/A time=00:07:51.34 bitrate=N/A speed=17.2x    frame=11572 fps=415 q=-0.0 size=N/A time=00:08:02.64 bitrate=N/A speed=17.3x    frame=11853 fps=417 q=-0.0 size=N/A time=00:08:14.36 bitrate=N/A speed=17.4x    frame=12077 fps=418 q=-0.0 size=N/A time=00:08:23.71 bitrate=N/A speed=17.4x    frame=12302 fps=418 q=-0.0 size=N/A time=00:08:33.09 bitrate=N/A speed=17.4x    frame=12551 fps=419 q=-0.0 size=N/A time=00:08:43.48 bitrate=N/A speed=17.5x    frame=12812 fps=421 q=-0.0 size=N/A time=00:08:54.36 bitrate=N/A speed=17.5x    frame=13053 fps=421 q=-0.0 size=N/A time=00:09:04.41 bitrate=N/A speed=17.6x    frame=13292 fps=422 q=-0.0 size=N/A time=00:09:14.38 bitrate=N/A speed=17.6x    frame=13536 fps=423 q=-0.0 size=N/A time=00:09:24.56 bitrate=N/A speed=17.6x    frame=13789 fps=424 q=-0.0 size=N/A time=00:09:35.11 bitrate=N/A speed=17.7x    frame=14017 fps=424 q=-0.0 size=N/A time=00:09:44.62 bitrate=N/A speed=17.7x    frame=14224 fps=424 q=-0.0 size=N/A time=00:09:53.25 bitrate=N/A speed=17.7x    frame=14455 fps=424 q=-0.0 size=N/A time=00:10:02.89 bitrate=N/A speed=17.7x    frame=14662 fps=424 q=-0.0 size=N/A time=00:10:11.52 bitrate=N/A speed=17.7x    frame=14885 fps=424 q=-0.0 size=N/A time=00:10:20.82 bitrate=N/A speed=17.7x    frame=15113 fps=424 q=-0.0 size=N/A time=00:10:30.33 bitrate=N/A speed=17.7x    frame=15330 fps=424 q=-0.0 size=N/A time=00:10:39.38 bitrate=N/A speed=17.7x    frame=15578 fps=425 q=-0.0 size=N/A time=00:10:49.73 bitrate=N/A speed=17.7x    frame=15844 fps=426 q=-0.0 size=N/A time=00:11:00.82 bitrate=N/A speed=17.8x    frame=16083 fps=427 q=-0.0 size=N/A time=00:11:10.79 bitrate=N/A speed=17.8x    frame=16312 fps=427 q=-0.0 size=N/A time=00:11:20.34 bitrate=N/A speed=17.8x    frame=16546 fps=427 q=-0.0 size=N/A time=00:11:30.10 bitrate=N/A speed=17.8x    frame=16799 fps=428 q=-0.0 size=N/A time=00:11:40.65 bitrate=N/A speed=17.9x    frame=17024 fps=428 q=-0.0 size=N/A time=00:11:50.04 bitrate=N/A speed=17.9x    frame=17202 fps=427 q=-0.0 size=N/A time=00:11:57.46 bitrate=N/A speed=17.8x    frame=17408 fps=427 q=-0.0 size=N/A time=00:12:06.05 bitrate=N/A speed=17.8x    frame=17589 fps=426 q=-0.0 size=N/A time=00:12:13.60 bitrate=N/A speed=17.8x    frame=17777 fps=425 q=-0.0 size=N/A time=00:12:21.44 bitrate=N/A speed=17.7x    frame=17995 fps=425 q=-0.0 size=N/A time=00:12:30.54 bitrate=N/A speed=17.7x    frame=18253 fps=426 q=-0.0 size=N/A time=00:12:41.30 bitrate=N/A speed=17.8x    frame=18486 fps=426 q=-0.0 size=N/A time=00:12:51.02 bitrate=N/A speed=17.8x    frame=18706 fps=426 q=-0.0 size=N/A time=00:13:00.19 bitrate=N/A speed=17.8x    frame=18984 fps=428 q=-0.0 size=N/A time=00:13:11.79 bitrate=N/A speed=17.8x    frame=19256 fps=429 q=-0.0 size=N/A time=00:13:23.13 bitrate=N/A speed=17.9x    frame=19548 fps=430 q=-0.0 size=N/A time=00:13:35.31 bitrate=N/A speed=17.9x    frame=19809 fps=431 q=-0.0 size=N/A time=00:13:46.20 bitrate=N/A speed=  18x    frame=20073 fps=432 q=-0.0 size=N/A time=00:13:57.21 bitrate=N/A speed=  18x    frame=20354 fps=433 q=-0.0 size=N/A time=00:14:08.93 bitrate=N/A speed=18.1x    frame=20589 fps=434 q=-0.0 size=N/A time=00:14:18.73 bitrate=N/A speed=18.1x    frame=20867 fps=435 q=-0.0 size=N/A time=00:14:30.32 bitrate=N/A speed=18.1x    frame=21107 fps=435 q=-0.0 size=N/A time=00:14:40.33 bitrate=N/A speed=18.1x    frame=21343 fps=435 q=-0.0 size=N/A time=00:14:50.18 bitrate=N/A speed=18.2x    frame=21583 fps=436 q=-0.0 size=N/A time=00:15:00.19 bitrate=N/A speed=18.2x    frame=21867 fps=437 q=-0.0 size=N/A time=00:15:12.03 bitrate=N/A speed=18.2x    frame=22108 fps=437 q=-0.0 size=N/A time=00:15:22.08 bitrate=N/A speed=18.2x    frame=22338 fps=437 q=-0.0 size=N/A time=00:15:31.68 bitrate=N/A speed=18.2x    frame=22588 fps=438 q=-0.0 size=N/A time=00:15:42.10 bitrate=N/A speed=18.3x    frame=22854 fps=438 q=-0.0 size=N/A time=00:15:53.20 bitrate=N/A speed=18.3x    frame=23120 fps=439 q=-0.0 size=N/A time=00:16:04.29 bitrate=N/A speed=18.3x    frame=23393 fps=440 q=-0.0 size=N/A time=00:16:15.68 bitrate=N/A speed=18.4x    frame=23618 fps=440 q=-0.0 size=N/A time=00:16:25.06 bitrate=N/A speed=18.4x    frame=23872 fps=441 q=-0.0 size=N/A time=00:16:35.66 bitrate=N/A speed=18.4x    frame=24120 fps=441 q=-0.0 size=N/A time=00:16:46.00 bitrate=N/A speed=18.4x    frame=24359 fps=441 q=-0.0 size=N/A time=00:16:55.97 bitrate=N/A speed=18.4x    frame=24542 fps=440 q=-0.0 size=N/A time=00:17:03.60 bitrate=N/A speed=18.4x    frame=24726 fps=440 q=-0.0 size=N/A time=00:17:11.28 bitrate=N/A speed=18.3x    frame=24908 fps=439 q=-0.0 size=N/A time=00:17:18.87 bitrate=N/A speed=18.3x    frame=25081 fps=438 q=-0.0 size=N/A time=00:17:26.08 bitrate=N/A speed=18.3x    frame=25272 fps=437 q=-0.0 size=N/A time=00:17:34.05 bitrate=N/A speed=18.2x    frame=25535 fps=438 q=-0.0 size=N/A time=00:17:45.02 bitrate=N/A speed=18.3x    frame=25803 fps=439 q=-0.0 size=N/A time=00:17:56.20 bitrate=N/A speed=18.3x    frame=26020 fps=438 q=-0.0 size=N/A time=00:18:05.25 bitrate=N/A speed=18.3x    frame=26262 fps=439 q=-0.0 size=N/A time=00:18:15.34 bitrate=N/A speed=18.3x    frame=26488 fps=439 q=-0.0 size=N/A time=00:18:24.77 bitrate=N/A speed=18.3x    frame=26706 fps=439 q=-0.0 size=N/A time=00:18:33.86 bitrate=N/A speed=18.3x    frame=26974 fps=439 q=-0.0 size=N/A time=00:18:45.04 bitrate=N/A speed=18.3x    frame=27245 fps=440 q=-0.0 size=N/A time=00:18:56.34 bitrate=N/A speed=18.4x    frame=27490 fps=440 q=-0.0 size=N/A time=00:19:06.56 bitrate=N/A speed=18.4x    frame=27737 fps=441 q=-0.0 size=N/A time=00:19:16.86 bitrate=N/A speed=18.4x    frame=27936 fps=440 q=-0.0 size=N/A time=00:19:25.16 bitrate=N/A speed=18.4x    frame=28155 fps=440 q=-0.0 size=N/A time=00:19:34.29 bitrate=N/A speed=18.4x    frame=28371 fps=440 q=-0.0 size=N/A time=00:19:43.30 bitrate=N/A speed=18.3x    frame=28587 fps=440 q=-0.0 size=N/A time=00:19:52.31 bitrate=N/A speed=18.3x    frame=28807 fps=440 q=-0.0 size=N/A time=00:20:01.49 bitrate=N/A speed=18.3x    frame=29060 fps=440 q=-0.0 size=N/A time=00:20:12.04 bitrate=N/A speed=18.4x    frame=29307 fps=440 q=-0.0 size=N/A time=00:20:22.34 bitrate=N/A speed=18.4x    frame=29542 fps=440 q=-0.0 size=N/A time=00:20:32.14 bitrate=N/A speed=18.4x    frame=29783 fps=441 q=-0.0 size=N/A time=00:20:42.19 bitrate=N/A speed=18.4x    frame=30015 fps=441 q=-0.0 size=N/A time=00:20:51.87 bitrate=N/A speed=18.4x    frame=30248 fps=441 q=-0.0 size=N/A time=00:21:01.59 bitrate=N/A speed=18.4x    frame=30468 fps=441 q=-0.0 size=N/A time=00:21:10.76 bitrate=N/A speed=18.4x    frame=30706 fps=441 q=-0.0 size=N/A time=00:21:20.69 bitrate=N/A speed=18.4x    frame=30973 fps=441 q=-0.0 size=N/A time=00:21:31.83 bitrate=N/A speed=18.4x    frame=31202 fps=441 q=-0.0 size=N/A time=00:21:41.38 bitrate=N/A speed=18.4x    frame=31449 fps=442 q=-0.0 size=N/A time=00:21:51.68 bitrate=N/A speed=18.4x    frame=31728 fps=442 q=-0.0 size=N/A time=00:22:03.32 bitrate=N/A speed=18.5x    frame=31999 fps=443 q=-0.0 size=N/A time=00:22:14.62 bitrate=N/A speed=18.5x    frame=32271 fps=444 q=-0.0 size=N/A time=00:22:25.96 bitrate=N/A speed=18.5x    frame=32509 fps=444 q=-0.0 size=N/A time=00:22:35.89 bitrate=N/A speed=18.5x    frame=32738 fps=444 q=-0.0 size=N/A time=00:22:45.44 bitrate=N/A speed=18.5x    frame=32957 fps=444 q=-0.0 size=N/A time=00:22:54.58 bitrate=N/A speed=18.5x    frame=33178 fps=443 q=-0.0 size=N/A time=00:23:03.79 bitrate=N/A speed=18.5x    frame=33400 fps=443 q=-0.0 size=N/A time=00:23:13.05 bitrate=N/A speed=18.5x    frame=33647 fps=444 q=-0.0 size=N/A time=00:23:23.36 bitrate=N/A speed=18.5x    frame=33860 fps=443 q=-0.0 size=N/A time=00:23:32.24 bitrate=N/A speed=18.5x    frame=34098 fps=443 q=-0.0 size=N/A time=00:23:42.17 bitrate=N/A speed=18.5x    [Parsed_ssim_10 @ 000001ab538939c0] SSIM Y:0.994032 (22.241719) U:0.993168 (21.654711) V:0.993342 (21.766607) All:0.993773 (22.057259)
[out#0/null @ 000001ab463f3b80] video:14722KiB audio:267972KiB subtitle:0KiB other streams:0KiB global headers:0KiB muxing overhead: unknown
frame=34262 fps=444 q=-0.0 Lsize=N/A time=00:23:49.01 bitrate=N/A speed=18.5x    
